HIERARCHY
ROOT root
{
	OFFSET 0.000000 0.000000 0.000000
	CHANNELS 6 Xposition Yposition Zposition Zrotation Yrotation Xrotation
	JOINT lhip
	{
		OFFSET 0.058581 -0.082280 -0.017664
		CHANNELS 3 Zrotation Yrotation Xrotation
		JOINT lknee
		{
			OFFSET 0.043451 -0.386469 0.008037
			CHANNELS 3 Zrotation Yrotation Xrotation
			JOINT lankle
			{
				OFFSET -0.014790 -0.426874 -0.037428
				CHANNELS 3 Zrotation Yrotation Xrotation
				JOINT ltoe
				{
					OFFSET 0.041054 -0.060286 0.122042
					CHANNELS 3 Zrotation Yrotation Xrotation
					End Site
					{
						OFFSET 0.000000 0.000000 0.000000
					}
				}
			}
		}
	}
	JOINT rhip
	{
		OFFSET -0.060310 -0.090513 -0.013543
		CHANNELS 3 Zrotation Yrotation Xrotation
		JOINT rknee
		{
			OFFSET -0.043257 -0.383688 -0.004843
			CHANNELS 3 Zrotation Yrotation Xrotation
			JOINT rankle
			{
				OFFSET 0.019056 -0.420046 -0.034562
				CHANNELS 3 Zrotation Yrotation Xrotation
				JOINT rtoe
				{
					OFFSET -0.034840 -0.062106 0.130323
					CHANNELS 3 Zrotation Yrotation Xrotation
					End Site
					{
						OFFSET 0.000000 0.000000 0.000000
					}
				}
			}
		}
	}
	JOINT lowerback
	{
		OFFSET 0.004439 0.124404 -0.038385
		CHANNELS 3 Zrotation Yrotation Xrotation
		JOINT upperback
		{
			OFFSET 0.004488 0.137956 0.026820
			CHANNELS 3 Zrotation Yrotation Xrotation
			JOINT chest
			{
				OFFSET -0.002265 0.056032 0.002855
				CHANNELS 3 Zrotation Yrotation Xrotation
				JOINT lowerneck
				{
					OFFSET -0.013390 0.211636 -0.033468
					CHANNELS 3 Zrotation Yrotation Xrotation
					JOINT upperneck
					{
						OFFSET 0.010113 0.088937 0.050410
						CHANNELS 3 Zrotation Yrotation Xrotation
						End Site
						{
							OFFSET 0.000000 0.000000 0.000000
						}
					}
				}
				JOINT lclavicle
				{
					OFFSET 0.071702 0.114000 -0.018898
					CHANNELS 3 Zrotation Yrotation Xrotation
					JOINT lshoulder
					{
						OFFSET 0.122921 0.045205 -0.019046
						CHANNELS 3 Zrotation Yrotation Xrotation
						JOINT lelbow
						{
							OFFSET 0.255332 -0.015649 -0.022946
							CHANNELS 3 Zrotation Yrotation Xrotation
							JOINT lwrist
							{
								OFFSET 0.265709 0.012698 -0.007375
								CHANNELS 3 Zrotation Yrotation Xrotation
								End Site
								{
									OFFSET 0.000000 0.000000 0.000000
								}
							}
						}
					}
				}
				JOINT rclavicle
				{
					OFFSET -0.082954 0.112472 -0.023707
					CHANNELS 3 Zrotation Yrotation Xrotation
					JOINT rshoulder
					{
						OFFSET -0.113228 0.046853 -0.008472
						CHANNELS 3 Zrotation Yrotation Xrotation
						JOINT relbow
						{
							OFFSET -0.260127 -0.014369 -0.031269
							CHANNELS 3 Zrotation Yrotation Xrotation
							JOINT rwrist
							{
								OFFSET -0.269108 0.006794 -0.006027
								CHANNELS 3 Zrotation Yrotation Xrotation
								End Site
								{
									OFFSET 0.000000 0.000000 0.000000
								}
							}
						}
					}
				}
			}
		}
	}
}
MOTION
Frames: 16
Frame Time: 0.033333
0.013474 -1.425054 0.982648 178.982550 0.753649 96.087491 -0.850851 3.894805 -0.940970 -1.982774 -1.388943 -4.839129 3.743830 17.206927 -12.873036 0.000000 -0.000000 0.000000 -8.623264 -6.599559 -9.516519 0.558780 -13.363561 9.358112 4.376530 -7.455490 -5.164719 0.000000 -0.000000 0.000000 0.122484 2.924161 -15.910285 1.886633 -2.067273 19.317057 -1.678292 1.575165 -6.009349 -5.679085 15.617038 5.056101 1.873676 19.621681 9.802213 -32.586410 -0.383338 -2.637660 -51.819900 -5.744293 17.777372 13.203495 -18.698033 -15.604653 -7.412613 -13.790812 -1.799576 31.759059 2.839671 2.116039 51.598624 4.608531 11.589172 -15.352885 15.507021 -24.556892 9.098523 11.253523 -8.456745 
0.015473 -1.425431 0.982329 179.718141 0.733404 96.162541 -0.646952 4.349637 -1.365099 -2.044379 -2.288338 -4.431726 3.596423 17.060062 -12.950543 0.000000 -0.000000 0.000000 -8.368285 -6.994548 -8.942147 0.734106 -12.883139 8.404249 4.881334 -8.344547 -5.325376 0.000000 -0.000000 0.000000 0.488619 2.948738 -15.650659 1.596261 -2.072318 18.321100 -1.544755 1.779105 -5.283192 -5.593323 17.739502 4.566015 2.352755 22.367606 10.123970 -31.929796 -0.629174 -2.491392 -53.006361 -4.773461 17.613039 11.855695 -17.841858 -9.907983 -11.086267 -9.389111 3.190627 31.459004 2.820605 2.661264 51.380151 5.312902 9.969517 -14.883664 16.137832 -24.301779 10.963396 10.550212 -6.789957 
0.018161 -1.424496 0.982344 179.931918 0.519842 96.114645 -0.692537 4.563752 -1.256436 -1.967163 -2.230102 -4.337786 3.189762 16.578065 -13.123872 0.000000 -0.000000 0.000000 -8.426444 -6.813841 -8.284978 0.801497 -13.151514 7.677093 4.877845 -8.428349 -5.249657 0.000000 -0.000000 0.000000 0.607220 3.321172 -15.755140 1.419273 -1.980845 18.865426 -1.660363 1.783387 -5.838702 -5.345350 20.187572 4.837801 2.679404 24.516407 9.640511 -32.031130 -0.480234 -2.526964 -52.341921 -4.369591 16.924889 11.649160 -18.530659 -10.743322 -19.132317 -11.691341 -1.273619 31.125853 2.828176 3.208649 51.654489 5.882997 9.500757 -14.639773 16.291307 -25.117700 12.208278 11.061879 -5.836432 
0.021785 -1.423745 0.982539 -179.471658 0.350840 96.133836 -0.569085 4.086898 -1.036895 -1.978033 -2.830400 -4.816406 3.465550 17.240498 -12.595765 0.000000 -0.000000 0.000000 -8.383415 -7.035816 -7.843022 1.039012 -13.236384 7.197535 4.880353 -8.787792 -5.445747 0.000000 -0.000000 0.000000 0.839456 3.494160 -15.683120 1.271810 -1.678847 18.096498 -1.643250 2.002371 -5.135940 -5.662797 21.789337 4.832762 2.919633 27.305132 9.104198 -32.110022 -0.566790 -2.052717 -52.869717 -4.058403 18.466139 8.782795 -17.812988 -4.351353 -11.093724 -8.833848 6.024256 31.157655 2.434203 3.253004 51.028109 6.501349 9.294156 -14.177991 17.066960 -24.618607 12.603421 10.577695 -6.660647 
0.022870 -1.423317 0.982692 -179.069696 0.183739 96.103811 -0.587819 4.063324 -0.981202 -2.061971 -3.155867 -4.833511 3.453489 17.196887 -12.425182 0.000000 -0.000000 0.000000 -8.507226 -7.214330 -7.532330 1.162766 -13.272172 6.952441 4.851921 -8.941002 -5.533107 0.000000 -0.000000 0.000000 0.822074 3.506256 -15.677356 1.193371 -1.733188 17.949527 -1.694753 2.041647 -4.977318 -5.785984 21.924550 4.823498 2.911951 27.788123 9.046674 -32.087146 -0.580365 -1.974674 -52.987655 -3.913933 18.383363 8.534698 -17.573498 -3.680655 -11.140499 -8.059021 6.152653 31.119100 2.405015 3.317816 51.062431 6.689657 8.987374 -14.145436 17.280176 -24.730155 12.437590 10.493129 -6.557754 
0.025068 -1.423163 0.982635 -178.353276 -0.026804 96.175690 -0.573427 4.015444 -1.191522 -2.129903 -3.414958 -4.639619 3.167213 16.831138 -12.473630 0.000000 -0.000000 0.000000 -8.668802 -7.308977 -7.212784 1.340178 -13.869646 6.620614 4.775417 -8.892939 -5.605721 0.000000 -0.000000 0.000000 0.971454 3.542586 -15.900922 1.033769 -1.708846 18.500867 -1.880904 2.070010 -5.379166 -5.673355 22.307294 4.867860 2.663836 27.957460 9.049333 -32.160097 -0.358318 -1.841101 -53.160742 -3.724586 18.583400 8.437552 -18.549039 -2.139170 -12.610278 -8.510053 7.196039 30.883235 2.387318 3.484559 51.219876 6.966105 8.720413 -14.002332 17.761568 -25.142955 11.740131 10.761696 -6.381688 
0.027223 -1.423244 0.982698 -177.720301 -0.080880 96.287905 -0.455247 3.980611 -1.458463 -2.104592 -3.786276 -4.433094 2.926954 16.640040 -12.504569 0.000000 -0.000000 0.000000 -8.544164 -7.436694 -7.017858 1.388471 -14.229044 6.342477 4.712655 -9.054902 -5.696337 0.000000 -0.000000 0.000000 1.104280 3.648679 -16.044651 0.917806 -1.614818 18.291174 -1.870864 2.234446 -5.136540 -5.638454 22.219169 5.165789 2.498470 27.917028 8.892963 -32.391813 -0.456082 -1.547609 -53.573982 -3.632314 18.255194 8.789256 -18.859024 -2.578504 -13.145255 -8.492649 7.459322 30.709287 2.598669 3.758974 51.289509 7.005018 8.245369 -14.109792 18.192259 -25.362626 12.195180 10.516929 -6.791135 
0.029882 -1.422832 0.982978 -177.080418 -0.250832 96.239629 -0.419297 4.106632 -1.460708 -2.111524 -3.846661 -4.478087 2.658313 16.226946 -12.515445 0.000000 -0.000000 0.000000 -8.563982 -7.773082 -6.557738 1.480874 -14.649928 5.970118 4.686937 -8.986554 -5.743046 0.000000 -0.000000 0.000000 0.990619 3.717775 -15.923823 0.871750 -1.500682 18.229382 -1.780922 2.188050 -5.145444 -5.618349 21.966535 5.249654 2.377797 27.732605 8.872901 -32.727550 -0.181544 -1.509846 -54.088703 -3.581284 18.154332 9.676748 -19.496945 -3.979293 -13.494839 -8.639370 6.828522 30.806454 2.681420 3.982785 51.152136 7.218714 8.301193 -14.503014 18.240806 -25.920733 12.496639 10.642478 -6.383980 
0.032228 -1.421980 0.982905 -176.641890 -0.356086 96.257599 -0.390878 3.743080 -1.412297 -1.985616 -3.808272 -4.552483 2.555211 16.143309 -12.476108 0.000000 -0.000000 0.000000 -8.552026 -7.907788 -6.259482 1.556063 -14.942912 5.699266 4.629368 -8.939255 -5.742962 0.000000 -0.000000 0.000000 0.990686 3.906888 -16.008311 0.757736 -1.366678 18.051353 -1.734837 2.205218 -4.875840 -5.548745 21.561136 5.369708 2.416978 27.513138 8.787504 -32.902083 -0.075725 -1.587594 -54.942731 -3.501180 18.125279 10.564422 -19.135245 -5.132709 -12.811606 -10.259647 5.626741 30.586575 2.734380 3.749946 51.395445 7.216899 8.305821 -14.429494 18.212856 -25.812857 12.888364 11.000000 -6.534661 
0.034551 -1.424371 0.983054 -176.600080 -0.495134 96.325803 -0.409076 3.429487 -1.798553 -2.011526 -3.438822 -4.262574 2.486689 16.049071 -12.430199 0.000000 -0.000000 0.000000 -8.625136 -7.415546 -6.644534 1.496355 -15.341759 6.016447 4.520465 -8.970947 -5.698648 0.000000 -0.000000 0.000000 1.205508 3.829630 -15.259822 0.558066 -0.896292 17.789714 -1.887140 2.390670 -5.191614 -5.129060 21.681874 5.303118 1.999028 27.040496 8.790961 -32.963332 0.289701 -1.924635 -55.633141 -3.150895 17.992261 11.646220 -19.934692 -7.084177 -12.807475 -10.654688 5.786170 30.651981 3.058226 3.825631 51.610899 7.388039 8.718900 -14.901556 17.998382 -26.261124 12.941143 11.223843 -6.502409 
0.036921 -1.424387 0.983279 -175.934528 -0.499095 96.244045 -0.218389 3.347731 -1.865910 -1.966395 -3.764079 -4.096189 2.297040 15.747430 -12.486436 0.000000 -0.000000 0.000000 -8.464839 -7.596494 -6.237444 1.561557 -15.675543 5.694721 4.382702 -9.020947 -5.737176 0.000000 -0.000000 0.000000 1.364569 3.809585 -15.187032 0.525379 -0.926988 18.127567 -1.923103 2.317264 -5.434051 -5.154951 21.686154 5.337749 1.849683 26.896845 8.908807 -33.140433 0.539801 -1.944196 -56.183395 -3.105954 17.676239 12.498153 -20.554263 -8.658952 -12.558682 -10.763978 5.198713 30.512939 3.126635 3.910190 51.830715 7.668024 8.848504 -14.973941 17.926430 -26.334245 12.692318 11.024480 -6.560438 
0.039261 -1.423382 0.983569 -175.431992 -0.551182 96.317515 -0.071557 3.040336 -1.849055 -1.946292 -3.959829 -4.233274 2.313894 15.739617 -12.296445 0.000000 -0.000000 0.000000 -8.363341 -7.973537 -5.998129 1.679911 -15.876807 5.420592 4.389077 -8.935185 -5.729037 0.000000 -0.000000 0.000000 1.225673 4.035499 -15.581866 0.550990 -1.066161 18.402797 -1.839779 2.254395 -5.423647 -5.261850 21.426346 5.397215 2.080471 27.038147 9.072558 -33.317492 0.727078 -1.909739 -56.590502 -3.065536 17.316776 13.302665 -20.998913 -10.052642 -11.896041 -10.767757 4.928072 30.584958 3.052932 3.958016 51.770327 7.914322 8.781321 -14.805006 17.778980 -26.306670 12.663011 10.974687 -6.339944 
0.041233 -1.423716 0.983829 -174.932556 -0.749881 96.223214 -0.079239 3.041797 -1.929046 -1.982176 -4.271986 -3.994714 2.180157 15.479873 -12.308388 0.000000 -0.000000 0.000000 -8.419129 -8.101448 -5.809922 1.676239 -16.030198 5.412330 4.203808 -9.171459 -5.885747 0.000000 -0.000000 0.000000 0.972073 4.010098 -15.073969 0.553726 -0.940505 17.804638 -1.704926 2.267722 -5.187398 -5.342257 21.209719 5.359561 2.171113 27.032431 9.139191 -33.307375 0.774576 -1.856275 -56.898588 -3.340625 17.074357 13.795172 -20.971645 -11.091124 -11.321604 -10.444258 4.620175 30.620051 2.964657 3.983030 51.747986 8.047634 8.688293 -14.618385 17.896069 -26.245192 12.366578 10.764437 -6.299732 
0.043417 -1.422801 0.983638 -174.635675 -0.645752 96.526561 0.140831 2.940966 -2.202353 -1.806490 -4.411951 -4.111951 1.954990 15.322382 -12.383842 0.000000 -0.000000 0.000000 -8.161431 -8.319107 -5.961817 1.767616 -16.257218 5.325196 4.240822 -9.001126 -5.980559 0.000000 -0.000000 0.000000 1.039418 4.270210 -15.706657 0.531474 -0.969522 17.700315 -1.591204 2.151247 -4.721839 -5.314919 21.382724 5.441360 2.151342 26.950846 9.234012 -33.209674 0.587858 -1.918395 -57.131059 -3.231701 16.750843 14.370114 -20.945214 -11.624658 -11.535425 -10.640831 4.761572 30.478396 3.318603 4.178087 51.935753 7.952734 8.633075 -14.573028 17.799575 -25.965197 12.771996 11.086485 -6.246838 
0.045044 -1.423535 0.983964 -174.308116 -0.859667 96.224330 0.032839 2.701210 -2.014840 -1.788416 -4.707812 -4.028581 1.926551 15.477675 -12.199404 0.000000 -0.000000 0.000000 -8.315015 -7.953585 -5.517990 1.774647 -16.498849 5.138638 4.111289 -9.389059 -5.961085 0.000000 -0.000000 0.000000 0.981231 4.020512 -14.946356 0.431123 -0.866828 17.609841 -1.621366 2.250803 -5.023794 -5.168614 21.538976 5.722490 2.037276 26.891073 9.063602 -33.080861 0.510542 -1.990487 -57.059756 -3.414540 16.909419 14.549227 -20.647476 -11.750600 -10.974561 -10.749954 4.636326 30.470446 3.606483 4.215575 52.184624 7.908907 9.084167 -14.613665 17.664446 -25.678889 12.559979 11.160423 -6.343309 
0.046432 -1.424063 0.983802 -174.209944 -0.871587 96.303155 0.023561 2.528101 -2.147266 -1.589954 -4.685551 -4.063468 1.920198 15.471888 -12.091105 0.000000 -0.000000 0.000000 -8.279875 -7.438001 -5.617461 1.786663 -16.833979 5.132902 4.067637 -9.691091 -5.926482 0.000000 -0.000000 0.000000 1.156451 3.985902 -14.755623 0.411987 -0.723923 17.632265 -1.702907 2.339591 -5.382914 -5.053870 21.716177 5.948460 1.972548 26.656652 9.082261 -32.819339 0.426879 -2.021866 -57.082325 -3.521700 17.214114 14.671471 -20.333536 -11.514004 -11.124556 -10.786185 4.531427 30.336488 3.818648 4.364985 52.474076 7.553258 9.663143 -14.787204 17.759590 -25.143419 12.382168 11.414651 -6.664061 
